<?xml version="1.0" encoding="utf-8"?>
<!-- Generator: Adobe Illustrator 27.7.0, SVG Export Plug-In . SVG Version: 6.00 Build 0)  -->
<svg version="1.1" id="Layer_1" xmlns="http://www.w3.org/2000/svg" xmlns:xlink="http://www.w3.org/1999/xlink" x="0px" y="0px"
	 viewBox="0 0 434 120" style="enable-background:new 0 0 434 120;" xml:space="preserve">
<style type="text/css">
	.st0{display:none;}
	.st1{display:inline;}
	.st2{fill:#FFFFFF;}
	.st3{fill:#F26622;}
	.st4{display:none;fill:url(#SVGID_1_);}
	.st5{display:none;fill:url(#SVGID_00000112591185496261311670000017434703207851339685_);}
	.st6{display:none;fill:url(#SVGID_00000036233647165442354410000000963822122273682617_);}
	.st7{display:none;fill:url(#SVGID_00000088091956616171095730000014876675774683150741_);}
	.st8{display:none;fill:url(#SVGID_00000105399283340729967040000017690195800832235432_);}
	.st9{display:none;fill:url(#SVGID_00000008110210126338275540000005342712203558732987_);}
</style>
<g class="st0">
	<rect x="0.3" class="st1" width="433.7" height="120"/>
	<rect x="0.3" class="st1" width="433.7" height="120"/>
</g>
<g>
	<path class="st2" d="M5.3,1.7c-0.2,0-0.4,0-0.6,0.1C4.6,1.9,4.4,2,4.3,2.2C4.2,2.3,4.1,2.5,4,2.6C3.9,2.8,3.9,3,3.9,3.2v47
		c0,0.4,0.1,0.8,0.4,1c0.3,0.3,0.6,0.4,1,0.5c0.4,0,0.8-0.2,1-0.5c0.3-0.3,0.4-0.7,0.4-1v-47c0-0.4-0.1-0.8-0.4-1
		C6.1,1.9,5.7,1.7,5.3,1.7z"/>
	<path class="st2" d="M54.3,1.7c-0.2,0-0.4,0-0.6,0.1c-0.2,0.1-0.3,0.2-0.5,0.3c-0.1,0.1-0.2,0.3-0.3,0.5S52.8,3,52.8,3.2v43
		l-35.7-44C17,2.1,16.8,2,16.7,1.9c-0.2-0.1-0.3-0.1-0.5-0.2s-0.4,0-0.6,0.1c-0.2,0.1-0.3,0.2-0.5,0.3c-0.3,0.3-0.5,0.6-0.5,1
		s0.1,0.8,0.3,1.1l38.3,47c0.1,0.2,0.3,0.3,0.5,0.4c0.2,0.1,0.4,0.1,0.6,0.1c0.2,0,0.3,0,0.5-0.1c0.3-0.1,0.5-0.3,0.7-0.6
		c0.2-0.2,0.3-0.5,0.2-0.8v-47c0-0.2,0-0.4-0.1-0.6c-0.1-0.2-0.2-0.3-0.3-0.5C55.2,2,55,1.9,54.9,1.8C54.7,1.7,54.5,1.7,54.3,1.7
		L54.3,1.7z"/>
	<path class="st2" d="M17.1,15.3c-0.2-0.2-0.4-0.4-0.7-0.5c-0.3-0.1-0.6-0.1-0.9,0c-0.3,0.1-0.5,0.3-0.7,0.6
		c-0.2,0.2-0.3,0.5-0.2,0.8v33.9c0,0.2,0,0.4,0.1,0.6c0.1,0.2,0.2,0.3,0.3,0.5c0.1,0.1,0.3,0.3,0.5,0.3c0.2,0.1,0.4,0.1,0.6,0.1
		c0.2,0,0.4,0,0.6-0.1s0.3-0.2,0.5-0.3c0.1-0.1,0.2-0.3,0.3-0.5c0.1-0.2,0.1-0.4,0.1-0.6V20.3l25.1,30.8c0.1,0.2,0.3,0.3,0.5,0.4
		c0.2,0.1,0.4,0.1,0.6,0.1c0.3,0,0.7-0.1,0.9-0.4c0.3-0.3,0.5-0.6,0.5-1s-0.1-0.8-0.3-1.1L17.1,15.3z"/>
	<path class="st2" d="M103.3,1.7H65c-0.2,0-0.4,0-0.6,0.1C64.2,1.9,64.1,2,64,2.2c-0.1,0.1-0.2,0.3-0.3,0.5s-0.1,0.4-0.1,0.6
		s0,0.4,0.1,0.6s0.2,0.3,0.3,0.5c0.1,0.1,0.3,0.2,0.5,0.3c0.2,0.1,0.4,0.1,0.6,0.1h17.7v45.5c0,0.2,0,0.4,0.1,0.6
		c0.1,0.2,0.2,0.3,0.3,0.5c0.1,0.1,0.3,0.3,0.5,0.3c0.2,0.1,0.4,0.1,0.6,0.1s0.4,0,0.6-0.1s0.3-0.2,0.5-0.3c0.1-0.1,0.2-0.3,0.3-0.5
		c0.1-0.2,0.1-0.4,0.1-0.6V4.7h17.7c0.4,0,0.8-0.2,1-0.5c0.3-0.3,0.4-0.7,0.4-1c0-0.4-0.1-0.8-0.4-1C104,1.9,103.7,1.7,103.3,1.7
		L103.3,1.7z"/>
	<path class="st2" d="M152.2,48.7h-36.9V32.4h25.1c0.2,0,0.4,0,0.6-0.1c0.2-0.1,0.3-0.2,0.5-0.3c0.1-0.1,0.2-0.3,0.3-0.5
		s0.1-0.4,0.1-0.6v-8.5c0-0.4-0.1-0.8-0.4-1c-0.3-0.3-0.6-0.4-1-0.5c-0.4,0-0.8,0.2-1,0.5c-0.3,0.3-0.4,0.7-0.4,1v7H114
		c-0.4,0-0.8,0.2-1,0.5c-0.3,0.3-0.4,0.7-0.4,1v19.2c0,0.4,0.1,0.8,0.4,1c0.3,0.3,0.6,0.4,1,0.5h38.3c0.4,0,0.8-0.2,1-0.5
		c0.3-0.3,0.4-0.7,0.4-1c0-0.2,0-0.4-0.1-0.6c-0.1-0.2-0.2-0.3-0.3-0.5s-0.3-0.2-0.5-0.3C152.6,48.8,152.4,48.7,152.2,48.7z"/>
	<path class="st2" d="M113.9,23.9c0.2,0,0.4,0,0.6-0.1s0.3-0.2,0.5-0.3c0.1-0.1,0.2-0.3,0.3-0.5c0.1-0.2,0.1-0.4,0.1-0.6V4.7h36.9
		c0.2,0,0.4,0,0.6-0.1c0.2-0.1,0.3-0.2,0.5-0.3c0.1-0.1,0.2-0.3,0.3-0.5s0.1-0.4,0.1-0.6c0-0.2,0-0.4-0.1-0.6
		c-0.1-0.2-0.2-0.3-0.3-0.5c-0.1-0.1-0.3-0.2-0.5-0.3c-0.2-0.1-0.4-0.1-0.6-0.1H114c-0.2,0-0.4,0-0.6,0.1s-0.3,0.2-0.5,0.3
		c-0.1,0.1-0.2,0.3-0.3,0.5c-0.1,0.2-0.1,0.4-0.1,0.6v19.2c0,0.2,0,0.4,0.1,0.6s0.2,0.3,0.3,0.5c0.1,0.1,0.3,0.2,0.5,0.3
		S113.8,23.9,113.9,23.9L113.9,23.9z"/>
	<path class="st2" d="M201.2,48.7h-36.9V3.2c0-0.2,0-0.4-0.1-0.6s-0.2-0.3-0.3-0.5c-0.1-0.1-0.3-0.2-0.5-0.3
		c-0.2-0.1-0.4-0.1-0.6-0.1c-0.2,0-0.4,0-0.6,0.1c-0.2,0.1-0.3,0.2-0.5,0.3c-0.1,0.1-0.2,0.3-0.3,0.5s-0.1,0.4-0.1,0.6v47
		c0,0.4,0.1,0.8,0.4,1c0.3,0.3,0.6,0.4,1,0.5H201c0.4,0,0.8-0.2,1-0.5c0.3-0.3,0.4-0.7,0.4-1c0-0.2,0-0.4-0.1-0.6
		c-0.1-0.2-0.2-0.3-0.3-0.5c-0.1-0.1-0.3-0.2-0.5-0.3C201.6,48.8,201.4,48.7,201.2,48.7z"/>
	<path class="st2" d="M250.2,48.7h-36.9V3.2c0-0.2,0-0.4-0.1-0.6s-0.2-0.3-0.3-0.5c-0.1-0.1-0.3-0.2-0.5-0.3
		c-0.2-0.1-0.4-0.1-0.6-0.1c-0.2,0-0.4,0-0.6,0.1c-0.2,0.1-0.3,0.2-0.5,0.3c-0.1,0.1-0.2,0.3-0.3,0.5s-0.1,0.4-0.1,0.6v47
		c0,0.4,0.1,0.8,0.4,1c0.3,0.3,0.6,0.4,1,0.5H250c0.4,0,0.8-0.2,1-0.5c0.3-0.3,0.4-0.7,0.4-1c0-0.2,0-0.4-0.1-0.6
		c-0.1-0.2-0.2-0.3-0.3-0.5c-0.1-0.1-0.3-0.2-0.5-0.3C250.6,48.7,250.4,48.7,250.2,48.7z"/>
	<path class="st2" d="M260.9,1.7c-0.2,0-0.4,0-0.6,0.1S260,2,259.8,2.1c-0.1,0.1-0.2,0.3-0.3,0.5c-0.1,0.2-0.1,0.4-0.1,0.6v47
		c0,0.2,0,0.4,0.1,0.6c0.1,0.2,0.2,0.3,0.3,0.5c0.1,0.1,0.3,0.3,0.5,0.3c0.2,0.1,0.4,0.1,0.6,0.1s0.4,0,0.6-0.1s0.3-0.2,0.5-0.3
		c0.1-0.1,0.2-0.3,0.3-0.5c0.1-0.2,0.1-0.4,0.1-0.6v-47c0-0.4-0.1-0.8-0.4-1C261.6,1.9,261.2,1.7,260.9,1.7z"/>
	<path class="st2" d="M310.4,1.8c-0.2-0.1-0.4-0.1-0.6-0.1s-0.4,0-0.6,0.1s-0.3,0.2-0.5,0.3c-0.1,0.1-0.2,0.3-0.3,0.5l-17.8,43.8
		L272.9,2.6c-0.1-0.2-0.2-0.3-0.3-0.5c-0.1-0.1-0.3-0.2-0.5-0.3c-0.2-0.1-0.4-0.1-0.6-0.1s-0.4,0-0.5,0.1c-0.4,0.2-0.6,0.5-0.8,0.8
		c-0.1,0.4-0.1,0.8,0,1.1l19.2,47c0.1,0.3,0.3,0.5,0.5,0.7s0.5,0.2,0.8,0.2s0.6-0.1,0.8-0.2s0.4-0.4,0.5-0.7l19.1-47
		c0.1-0.4,0.2-0.8,0-1.1C311,2.3,310.7,2,310.4,1.8z"/>
	<path class="st2" d="M320.5,1.7c-0.2,0-0.4,0-0.6,0.1s-0.3,0.2-0.5,0.3c-0.1,0.1-0.2,0.3-0.3,0.5C319,2.8,319,3,319,3.2v47
		c0,0.2,0,0.4,0.1,0.6c0.1,0.2,0.2,0.3,0.3,0.5c0.1,0.1,0.3,0.3,0.5,0.3c0.2,0.1,0.4,0.1,0.6,0.1s0.4,0,0.6-0.1s0.3-0.2,0.5-0.3
		c0.1-0.1,0.2-0.3,0.3-0.5c0.1-0.2,0.1-0.4,0.1-0.6v-47c0-0.4-0.1-0.8-0.4-1C321.3,1.9,320.9,1.7,320.5,1.7z"/>
	<path class="st2" d="M363.3,29l-24.9-7.5c-1.7-0.6-3.2-1.7-4.2-3.2s-1.6-3.2-1.5-5c0-2.2,0.8-4.4,2.3-6s3.7-2.6,5.9-2.6H360
		c2.2,0.1,4.3,1,5.9,2.6c1.5,1.6,2.4,3.8,2.3,6c0,0.2,0,0.4,0.1,0.6c0.1,0.2,0.2,0.3,0.3,0.5c0.1,0.1,0.3,0.2,0.5,0.3
		s0.4,0.1,0.6,0.1s0.4,0,0.6-0.1s0.3-0.2,0.5-0.3c0.1-0.1,0.2-0.3,0.3-0.5c0.1-0.2,0.1-0.4,0.1-0.6c0-6.4-5-11.6-11.1-11.6H341
		c-6.1,0-11.1,5.2-11.1,11.6c0,2.4,0.7,4.8,2.1,6.8s3.4,3.5,5.7,4.3l24.9,7.5c1.7,0.6,3.2,1.7,4.2,3.2s1.6,3.2,1.5,5
		c0,2.2-0.8,4.4-2.3,6s-3.7,2.5-5.9,2.6H341c-2.2-0.1-4.3-1-5.9-2.6c-1.5-1.6-2.4-3.8-2.3-6c0-0.4-0.1-0.8-0.4-1
		c-0.3-0.3-0.6-0.4-1-0.5c-0.4,0-0.8,0.2-1,0.5c-0.3,0.3-0.4,0.7-0.4,1c0,6.4,5,11.6,11.1,11.6H360c6.1,0,11.1-5.2,11.1-11.6
		c0-2.4-0.7-4.8-2.1-6.8S365.6,29.8,363.3,29z"/>
	<path class="st2" d="M415.8,49.1c-2.6-2.7-5.7-4.9-9.2-6.4s-7.2-2.3-11-2.3s-7.5,0.8-11,2.3s-6.6,3.7-9.2,6.4
		c-0.3,0.3-0.4,0.7-0.4,1.1c0,0.4,0.1,0.8,0.4,1.1c0.1,0.1,0.3,0.2,0.5,0.3s0.4,0.1,0.5,0.1c0.2,0,0.4,0,0.5-0.1
		c0.2-0.1,0.3-0.2,0.5-0.3c2.3-2.5,5.1-4.4,8.3-5.8c3.1-1.3,6.5-2,9.9-2s6.8,0.7,9.9,2s5.9,3.3,8.3,5.8c0.1,0.1,0.3,0.2,0.5,0.3
		s0.4,0.1,0.5,0.1c0.2,0,0.4,0,0.5-0.1c0.2-0.1,0.3-0.2,0.5-0.3c0.3-0.3,0.4-0.7,0.4-1.1C416.2,49.8,416,49.4,415.8,49.1z"/>
	<path class="st3" d="M411.2,35.9L411.2,35.9c0-0.1-0.1-0.2-0.1-0.3l0,0L397,2.6c-0.1-0.3-0.3-0.5-0.5-0.7s-0.5-0.2-0.8-0.2
		s-0.6,0.1-0.8,0.2c-0.2,0.2-0.4,0.4-0.6,0.7l-14.1,33l0,0c-0.1,0.2-0.1,0.4-0.1,0.6v0.1c0,0.1,0,0.2,0,0.3l0,0c0,0.1,0,0.1,0.1,0.2
		l0,0v0.1c0,0.1,0.1,0.1,0.1,0.2l0.1,0.1l0.1,0.1l0.1,0.1l0.1,0.1c0,0,0.1,0.1,0.2,0.1c0,0,0.1,0,0.1,0.1l0,0c0.1,0,0.2,0.1,0.3,0.1
		c0,0,0,0,0.1,0s0.2,0,0.2,0s0,0,0.1,0s0.2,0,0.3,0c0.1,0,0.1,0,0.2-0.1l0,0c8.7-3.6,18.4-3.6,27,0h0.1h0.1c0.1,0,0.2,0.1,0.4,0.1
		c0.1,0,0.3,0,0.4-0.1h0.1h0.1c0.1,0,0.1-0.1,0.2-0.1c0,0,0,0,0.1,0c0.1-0.1,0.2-0.2,0.3-0.3c0,0,0,0,0.1-0.1s0.1-0.2,0.2-0.3l0,0
		l0,0c0-0.1,0.1-0.2,0.1-0.3v-0.1c0,0,0-0.1,0-0.2C411.2,36.1,411.2,36,411.2,35.9z"/>
	<path class="st2" d="M8.1,102.7V82.4H0.2v-1.3h17.1v1.3H9.4v20.3H8.1z M32.9,102.7v-8.6c0-1.2-0.1-2.2-0.4-3
		c-0.2-0.8-0.6-1.5-1-2.1c-0.5-0.6-1-1-1.7-1.2c-0.6-0.3-1.4-0.4-2.2-0.4c-1,0-1.8,0.2-2.5,0.5s-1.2,0.8-1.7,1.4
		c-0.4,0.6-0.7,1.3-0.9,2.1c-0.2,0.8-0.3,1.6-0.3,2.5H21c0-1.8,0.3-3.3,0.9-4.5c0.6-1.1,1.4-2,2.4-2.5s2.1-0.8,3.3-0.8
		c0.8,0,1.6,0.1,2.2,0.3c0.7,0.2,1.3,0.6,1.8,1s1,1,1.4,1.6s0.6,1.4,0.8,2.2c0.2,0.8,0.3,1.7,0.3,2.6v8.8L32.9,102.7L32.9,102.7z
		 M20.9,102.7V81.1h1.2v12.8h0.1v8.8C22.2,102.7,20.9,102.7,20.9,102.7z M45.8,103.1c-1.5,0-2.8-0.3-4-1c-1.1-0.7-2-1.7-2.5-3
		c-0.6-1.3-0.9-2.8-0.9-4.6c0-1.8,0.3-3.3,0.9-4.6c0.6-1.3,1.4-2.3,2.5-2.9c1.1-0.7,2.4-1,4-1c1.5,0,2.9,0.3,4,1.1
		c1.1,0.7,1.9,1.7,2.5,3s0.9,2.9,0.9,4.8h-1.4v-0.4c-0.1-2.3-0.6-4.1-1.6-5.4c-1-1.2-2.5-1.9-4.4-1.9s-3.4,0.6-4.5,1.9
		s-1.6,3.1-1.6,5.4s0.5,4.1,1.6,5.4s2.6,1.9,4.5,1.9c1.3,0,2.5-0.3,3.5-0.9s1.8-1.5,2.4-2.7l1,0.6c-0.7,1.4-1.6,2.4-2.8,3.2
		S47.4,103.1,45.8,103.1z M39.2,95v-1.3h13.2V95H39.2z"/>
	<path class="st2" d="M125.6,102.7V81.1h1.3v21.6H125.6z M151.8,102.7V91.5c0-1.3-0.4-2.4-1.2-3.2c-0.8-0.8-1.8-1.2-2.9-1.2
		c-0.6,0-1.3,0.1-1.9,0.4c-0.7,0.3-1.2,0.8-1.7,1.5c-0.4,0.7-0.7,1.6-0.7,2.8h-1.1c-0.1-1.2,0.2-2.2,0.6-3.1c0.5-0.9,1.1-1.6,2-2
		c0.8-0.5,1.8-0.7,2.9-0.7c1.5,0,2.8,0.5,3.8,1.4c1,1,1.5,2.3,1.5,4v11.2L151.8,102.7L151.8,102.7z M132.5,102.7V86.5h1.2v3.3h0.1
		v12.9C133.8,102.7,132.5,102.7,132.5,102.7z M142.2,102.7V91.8c0-1.4-0.4-2.5-1.2-3.3s-1.8-1.2-3-1.2c-1.3,0-2.3,0.4-3.1,1.3
		s-1.2,2-1.2,3.5l-1.1-0.5c0-1,0.2-2,0.7-2.8s1.1-1.5,1.9-1.9c0.8-0.5,1.8-0.7,2.9-0.7c0.9,0,1.8,0.2,2.6,0.6s1.4,1,1.9,1.8
		s0.8,1.8,0.8,3.1v11.2h-1.2L142.2,102.7L142.2,102.7z M177.4,102.7V91.5c0-1.3-0.4-2.4-1.2-3.2c-0.8-0.8-1.8-1.2-2.9-1.2
		c-0.6,0-1.3,0.1-1.9,0.4c-0.6,0.3-1.2,0.8-1.6,1.5c-0.4,0.7-0.7,1.6-0.7,2.8H168c-0.1-1.2,0.2-2.2,0.6-3.1c0.5-0.9,1.1-1.6,2-2
		c0.8-0.5,1.8-0.7,2.9-0.7c1.5,0,2.8,0.5,3.8,1.4c1,1,1.5,2.3,1.5,4v11.2L177.4,102.7L177.4,102.7z M158.2,102.7V86.5h1.2v3.3h0.1
		v12.9C159.5,102.7,158.2,102.7,158.2,102.7z M167.8,102.7V91.8c0-1.4-0.4-2.5-1.2-3.3s-1.8-1.2-3-1.2c-1.3,0-2.3,0.4-3.1,1.3
		s-1.2,2-1.2,3.5l-1.1-0.5c0-1,0.2-2,0.7-2.8s1.1-1.5,1.9-1.9c0.8-0.5,1.8-0.7,2.9-0.7c0.9,0,1.8,0.2,2.6,0.6s1.4,1,1.9,1.8
		s0.8,1.8,0.8,3.1v11.2h-1.2L167.8,102.7L167.8,102.7z M184.1,83v-1.9h1.3V83H184.1z M184.1,102.7V86.5h1.3v16.2H184.1z
		 M197.2,110.3c-0.8,0-1.6-0.1-2.4-0.3c-0.8-0.2-1.5-0.6-2.2-1.1s-1.3-1.2-1.8-2.1l1.1-0.8c0.5,1.1,1.3,1.9,2.3,2.4s2,0.7,3,0.7
		c1.4,0,2.6-0.3,3.4-0.8c0.8-0.5,1.4-1.4,1.7-2.4c0.3-1.1,0.5-2.4,0.5-4v-4.1h0.1V86.5h1.2v15.3c0,0.5,0,1,0,1.4s-0.1,0.9-0.1,1.4
		c-0.2,1.3-0.5,2.4-1.1,3.2c-0.5,0.9-1.3,1.5-2.2,1.9C199.8,110.1,198.6,110.3,197.2,110.3z M197.2,103.1c-1.5,0-2.8-0.4-3.9-1.1
		c-1-0.8-1.8-1.8-2.4-3.1c-0.5-1.3-0.8-2.8-0.8-4.4s0.3-3,0.8-4.3s1.3-2.3,2.3-3.1c1-0.8,2.3-1.1,3.7-1.1c1.5,0,2.8,0.4,3.8,1.1
		s1.8,1.7,2.4,3c0.5,1.3,0.8,2.7,0.8,4.4c0,1.6-0.3,3.1-0.8,4.4s-1.3,2.3-2.3,3.1C199.9,102.8,198.6,103.1,197.2,103.1z
		 M197.2,101.9c1.3,0,2.3-0.3,3.2-1c0.9-0.6,1.5-1.5,1.9-2.6s0.6-2.4,0.6-3.8s-0.2-2.7-0.7-3.8c-0.4-1.1-1.1-2-1.9-2.6
		c-0.9-0.6-1.9-0.9-3.2-0.9s-2.4,0.3-3.2,1c-0.8,0.6-1.5,1.5-1.9,2.6s-0.6,2.3-0.6,3.7c0,1.4,0.2,2.6,0.6,3.8c0.4,1.1,1.1,2,1.9,2.6
		C194.9,101.6,196,101.9,197.2,101.9z M209.5,102.7V86.5h1.2v3.9l-0.4-0.5c0.2-0.4,0.4-0.9,0.6-1.2s0.5-0.7,0.8-0.9
		c0.4-0.4,1-0.8,1.6-1s1.2-0.4,1.8-0.4s1.1,0,1.6,0.2v1.2c-0.7-0.2-1.4-0.2-2.1-0.1c-0.8,0.1-1.4,0.4-2.1,1c-0.6,0.5-1,1.1-1.2,1.8
		c-0.2,0.7-0.4,1.4-0.4,2.1c-0.1,0.7-0.1,1.4-0.1,2.1v8H209.5z M224.7,103.1c-1.3,0-2.3-0.2-3.1-0.7c-0.8-0.4-1.4-1-1.9-1.7
		c-0.4-0.7-0.6-1.5-0.6-2.3c0-0.9,0.2-1.7,0.6-2.4c0.4-0.6,1-1.1,1.6-1.5s1.4-0.6,2.2-0.8c0.9-0.2,1.9-0.4,3-0.5
		c1.1-0.2,2.1-0.3,3-0.4s1.6-0.2,2-0.2l-0.4,0.3c0.1-1.9-0.3-3.3-1.1-4.3c-0.7-0.9-2.1-1.4-3.9-1.4c-1.4,0-2.5,0.3-3.3,0.9
		s-1.4,1.5-1.7,2.8l-1.4-0.4c0.4-1.5,1.1-2.6,2.2-3.4c1.1-0.8,2.5-1.2,4.2-1.2c1.5,0,2.8,0.3,3.8,0.9s1.7,1.4,2,2.5
		c0.1,0.4,0.2,0.9,0.3,1.5s0.1,1.1,0.1,1.7v10.1h-1.2v-4.4h0.6c-0.4,1.5-1.3,2.7-2.6,3.6C228,102.7,226.5,103.1,224.7,103.1z
		 M224.7,101.9c1.2,0,2.2-0.2,3.1-0.6c0.9-0.4,1.6-1,2.2-1.8c0.6-0.8,0.9-1.8,1.1-2.9c0.1-0.6,0.1-1.2,0.1-1.8s0-1.1,0-1.4l0.7,0.5
		c-0.5,0.1-1.3,0.1-2.2,0.2s-1.9,0.2-3,0.3c-1,0.1-2,0.3-2.8,0.5c-0.5,0.1-1,0.3-1.5,0.6c-0.5,0.3-1,0.6-1.3,1.1
		c-0.4,0.5-0.5,1.1-0.5,1.8c0,0.5,0.1,1,0.4,1.6c0.3,0.5,0.7,1,1.3,1.3C222.8,101.7,223.6,101.9,224.7,101.9z M245.9,102.7
		c-0.8,0.2-1.6,0.2-2.4,0.2c-0.8,0-1.5-0.2-2.1-0.6c-0.6-0.3-1.1-0.8-1.4-1.5c-0.2-0.5-0.4-1.1-0.4-1.6s0-1.2,0-1.9V82h1.3v15.3
		c0,0.7,0,1.3,0,1.7c0,0.4,0.1,0.8,0.3,1.2c0.4,0.7,0.9,1.2,1.7,1.3c0.8,0.2,1.8,0.1,3.1-0.1v1.3C246,102.7,245.9,102.7,245.9,102.7
		z M235.7,87.8v-1.3h10.2v1.3H235.7z M250.4,83v-1.9h1.3V83H250.4z M250.4,102.7V86.5h1.3v16.2H250.4z M263.8,103.1
		c-1.6,0-3-0.4-4.1-1.1s-1.9-1.7-2.5-3s-0.9-2.8-0.9-4.5s0.3-3.2,0.9-4.5s1.4-2.3,2.5-3s2.5-1.1,4-1.1c1.6,0,3,0.4,4.1,1.1
		s1.9,1.7,2.5,3s0.9,2.8,0.9,4.4c0,1.7-0.3,3.2-0.9,4.5s-1.4,2.3-2.5,3C266.8,102.8,265.4,103.1,263.8,103.1z M263.8,101.9
		c2,0,3.6-0.7,4.6-2c1-1.4,1.5-3.1,1.5-5.3c0-2.2-0.5-4-1.5-5.3s-2.5-2-4.5-2c-1.4,0-2.5,0.3-3.4,0.9s-1.6,1.5-2,2.6
		s-0.7,2.3-0.7,3.8c0,2.2,0.5,4,1.5,5.3C260.3,101.2,261.8,101.9,263.8,101.9z M287.8,102.7v-8.6c0-1.2-0.1-2.2-0.4-3
		c-0.2-0.8-0.6-1.5-1-2.1c-0.5-0.6-1-1-1.7-1.2c-0.6-0.3-1.4-0.4-2.2-0.4c-1,0-1.8,0.2-2.5,0.5s-1.2,0.8-1.7,1.4
		c-0.4,0.6-0.7,1.3-0.9,2.1c-0.2,0.8-0.3,1.6-0.3,2.5h-1.2c0-1.8,0.3-3.3,0.9-4.5c0.6-1.1,1.4-2,2.4-2.5s2.1-0.8,3.3-0.8
		c0.8,0,1.6,0.1,2.2,0.3c0.7,0.2,1.3,0.6,1.8,1s1,1,1.4,1.6s0.6,1.4,0.8,2.2c0.2,0.8,0.3,1.7,0.3,2.6v8.8L287.8,102.7L287.8,102.7z
		 M275.8,102.7V86.5h1.2v3.3h0.1v12.9C277.1,102.7,275.8,102.7,275.8,102.7z M309.8,103.1c-2.1,0-3.9-0.5-5.4-1.4
		c-1.4-1-2.5-2.3-3.2-4s-1.1-3.6-1.1-5.8c0-2.2,0.4-4.1,1.1-5.8c0.7-1.7,1.8-3,3.2-4c1.4-1,3.2-1.4,5.4-1.4c2.5,0,4.6,0.7,6.1,2
		s2.6,3.1,3.1,5.2l-1.3,0.3c-0.5-1.9-1.4-3.4-2.7-4.6c-1.3-1.1-3-1.7-5.2-1.7c-1.9,0-3.4,0.4-4.6,1.3c-1.2,0.8-2.1,2-2.8,3.5
		c-0.6,1.5-0.9,3.2-1,5.2c0,2,0.3,3.7,0.9,5.2s1.6,2.7,2.8,3.5c1.2,0.8,2.8,1.3,4.6,1.3c2.1,0,3.9-0.6,5.2-1.7
		c1.3-1.1,2.2-2.7,2.7-4.6l1.3,0.3c-0.5,2.2-1.6,3.9-3.1,5.3C314.4,102.5,312.4,103.1,309.8,103.1z M330.1,103.1c-1.6,0-3-0.4-4-1.1
		c-1.1-0.7-1.9-1.7-2.5-3s-0.9-2.8-0.9-4.5s0.3-3.2,0.9-4.5s1.4-2.3,2.5-3s2.4-1.1,4-1.1s3,0.4,4.1,1.1s1.9,1.7,2.5,3
		s0.9,2.8,0.9,4.4c0,1.7-0.3,3.2-0.9,4.5s-1.4,2.3-2.5,3C333,102.8,331.7,103.1,330.1,103.1z M330.1,101.9c2,0,3.6-0.7,4.6-2
		c1-1.4,1.5-3.1,1.5-5.3c0-2.2-0.5-4-1.5-5.3s-2.5-2-4.5-2c-1.4,0-2.5,0.3-3.4,0.9s-1.6,1.5-2,2.6s-0.7,2.3-0.7,3.8
		c0,2.2,0.5,4,1.5,5.3C326.6,101.2,328.1,101.9,330.1,101.9z M341.7,93.9v-1.3h9v1.3H341.7z M355.8,102.7V81.1h8c0.2,0,0.4,0,0.6,0
		s0.5,0,0.7,0.1c1,0.2,1.9,0.5,2.7,1.1c0.8,0.6,1.4,1.3,1.8,2.2c0.4,0.9,0.6,1.9,0.6,3s-0.2,2.1-0.6,3s-1,1.7-1.8,2.2
		c-0.8,0.6-1.7,1-2.7,1.1c-0.3,0-0.5,0.1-0.7,0.1s-0.4,0-0.6,0H357v8.6h-1.2V102.7z M357,92.8h6.7c0.2,0,0.4,0,0.6,0
		s0.5-0.1,0.7-0.1c0.8-0.2,1.5-0.5,2.1-1s1-1.1,1.3-1.8c0.3-0.7,0.4-1.5,0.4-2.3s-0.1-1.6-0.4-2.3c-0.3-0.7-0.7-1.3-1.3-1.8
		c-0.6-0.5-1.3-0.8-2.1-1c-0.2,0-0.5-0.1-0.7-0.1s-0.4,0-0.6,0H357V92.8z M374.7,83v-1.9h1.3V83H374.7z M374.7,102.7V86.5h1.3v16.2
		H374.7z M382,102.7V80.6h1.3v22.1H382z M395.5,103.1c-1.6,0-3-0.4-4.1-1.1s-1.9-1.7-2.5-3s-0.9-2.8-0.9-4.5s0.3-3.2,0.9-4.5
		s1.4-2.3,2.5-3s2.5-1.1,4-1.1c1.6,0,3,0.4,4.1,1.1s1.9,1.7,2.5,3s0.9,2.8,0.9,4.4c0,1.7-0.3,3.2-0.9,4.5s-1.4,2.3-2.5,3
		C398.4,102.8,397,103.1,395.5,103.1z M395.5,101.9c2,0,3.6-0.7,4.6-2c1-1.4,1.5-3.1,1.5-5.3c0-2.2-0.5-4-1.5-5.3s-2.5-2-4.5-2
		c-1.4,0-2.5,0.3-3.4,0.9s-1.6,1.5-2,2.6s-0.7,2.3-0.7,3.8c0,2.2,0.5,4,1.5,5.3C392,101.2,393.5,101.9,395.5,101.9z M415.7,102.7
		c-0.8,0.2-1.6,0.2-2.4,0.2s-1.5-0.2-2.1-0.6c-0.6-0.3-1.1-0.8-1.4-1.5c-0.2-0.5-0.4-1.1-0.4-1.6s0-1.2,0-1.9V82h1.3v15.3
		c0,0.7,0,1.3,0,1.7c0,0.4,0.1,0.8,0.3,1.2c0.4,0.7,0.9,1.2,1.7,1.3c0.8,0.2,1.8,0.1,3.1-0.1v1.3
		C415.8,102.7,415.7,102.7,415.7,102.7z M405.6,87.8v-1.3h10.2v1.3H405.6z"/>
	<path class="st2" d="M416.9,2.8h3.2v7.4h1.1V2.8h3.2V1.7H417v1.1C417,2.8,416.9,2.8,416.9,2.8z"/>
	<path class="st2" d="M432.6,1.7l-3,4.1l-3-4.1h-1.2v8.4h1.1V3.3l2.8,3.7h0.8l2.8-3.7v6.9h1.1V1.7H432.6z"/>
	<g>
		<g>
			<polygon class="st2" points="74.8,107.4 70.7,107.4 80.5,80.3 81,80.5 71.5,106.9 74.4,106.9 76.1,101.3 83.5,101.3 83.5,101.9 
				76.5,101.9 			"/>
			<polygon class="st2" points="68.6,106.7 68,106.5 72.9,92.8 71.7,90.2 76.8,76 77.4,76.2 72.3,90.2 73.6,92.7 			"/>
			<path class="st2" d="M77.3,76.4c-0.5,0-0.9-0.4-0.9-0.9s0.4-0.9,0.9-0.9s0.9,0.4,0.9,0.9C78.3,76,77.8,76.4,77.3,76.4z
				 M77.3,75.1c-0.2,0-0.3,0.2-0.3,0.3s0.2,0.3,0.3,0.3c0.2,0,0.3-0.2,0.3-0.3S77.5,75.1,77.3,75.1z"/>
			<polygon class="st2" points="85.4,95.3 78,95.3 81.4,84.4 82,84.6 78.8,94.8 85.4,94.8 			"/>
			<path class="st2" d="M81.9,84.8c-0.5,0-0.9-0.4-0.9-0.9s0.4-0.9,0.9-0.9s0.9,0.4,0.9,0.9S82.4,84.8,81.9,84.8z M81.9,83.5
				c-0.2,0-0.3,0.2-0.3,0.3s0.2,0.3,0.3,0.3s0.3-0.2,0.3-0.3S82.1,83.5,81.9,83.5z"/>
			<path class="st2" d="M84.5,93c-0.5,0-0.9-0.4-0.9-0.9s0.4-0.9,0.9-0.9s0.9,0.4,0.9,0.9S85,93,84.5,93z M84.5,91.8
				c-0.2,0-0.3,0.2-0.3,0.3c0,0.2,0.2,0.3,0.3,0.3c0.2,0,0.3-0.2,0.3-0.3C84.8,91.9,84.7,91.8,84.5,91.8z"/>
			<path class="st2" d="M80.3,76.4c-0.5,0-0.9-0.4-0.9-0.9s0.4-0.9,0.9-0.9s0.9,0.4,0.9,0.9C81.2,76,80.8,76.4,80.3,76.4z
				 M80.3,75.1c-0.2,0-0.3,0.2-0.3,0.3s0.2,0.3,0.3,0.3c0.2,0,0.3-0.2,0.3-0.3S80.5,75.1,80.3,75.1z"/>
			<path class="st2" d="M86.4,76.4c-0.5,0-0.9-0.4-0.9-0.9s0.4-0.9,0.9-0.9s0.9,0.4,0.9,0.9S86.9,76.4,86.4,76.4z M86.4,75.1
				c-0.2,0-0.3,0.2-0.3,0.3s0.2,0.3,0.3,0.3c0.2,0,0.3-0.2,0.3-0.3S86.6,75.1,86.4,75.1z"/>
			<path class="st2" d="M105.1,76.4c-0.5,0-0.9-0.4-0.9-0.9s0.4-0.9,0.9-0.9s0.9,0.4,0.9,0.9S105.6,76.4,105.1,76.4z M105.1,75.1
				c-0.2,0-0.3,0.2-0.3,0.3s0.2,0.3,0.3,0.3c0.2,0,0.3-0.2,0.3-0.3S105.3,75.1,105.1,75.1z"/>
			<path class="st2" d="M108.2,76.4c-0.5,0-0.9-0.4-0.9-0.9s0.4-0.9,0.9-0.9s0.9,0.4,0.9,0.9S108.7,76.4,108.2,76.4z M108.2,75.1
				c-0.2,0-0.3,0.2-0.3,0.3s0.2,0.3,0.3,0.3s0.3-0.2,0.3-0.3S108.4,75.1,108.2,75.1z"/>
			<path class="st2" d="M90,86.4c-0.5,0-0.9-0.4-0.9-0.9s0.4-0.9,0.9-0.9s0.9,0.4,0.9,0.9S90.5,86.4,90,86.4z M90,85.2
				c-0.2,0-0.3,0.2-0.3,0.3c0,0.2,0.2,0.3,0.3,0.3c0.2,0,0.3-0.2,0.3-0.3C90.3,85.3,90.2,85.2,90,85.2z"/>
			<path class="st2" d="M68,108.1c-0.5,0-0.9-0.4-0.9-0.9s0.4-0.9,0.9-0.9s0.9,0.4,0.9,0.9S68.6,108.1,68,108.1z M68,106.8
				c-0.2,0-0.3,0.2-0.3,0.3s0.2,0.3,0.3,0.3c0.2,0,0.3-0.2,0.3-0.3S68.2,106.8,68,106.8z"/>
			<path class="st2" d="M87.4,102.5c-0.5,0-0.9-0.4-0.9-0.9s0.4-0.9,0.9-0.9s0.9,0.4,0.9,0.9S87.9,102.5,87.4,102.5z M87.4,101.3
				c-0.2,0-0.3,0.2-0.3,0.3s0.2,0.3,0.3,0.3c0.2,0,0.3-0.2,0.3-0.3S87.6,101.3,87.4,101.3z"/>
			<path class="st2" d="M100.1,102.4c-0.5,0-0.9-0.4-0.9-0.9s0.4-0.9,0.9-0.9s0.9,0.4,0.9,0.9S100.6,102.4,100.1,102.4z
				 M100.1,101.1c-0.2,0-0.3,0.2-0.3,0.3c0,0.2,0.2,0.3,0.3,0.3s0.3-0.2,0.3-0.3C100.4,101.3,100.3,101.1,100.1,101.1z"/>
			<path class="st2" d="M89.1,108.1c-0.5,0-0.9-0.4-0.9-0.9s0.4-0.9,0.9-0.9s0.9,0.4,0.9,0.9S89.6,108.1,89.1,108.1z M89.1,106.8
				c-0.2,0-0.3,0.2-0.3,0.3s0.2,0.3,0.3,0.3s0.3-0.2,0.3-0.3S89.3,106.8,89.1,106.8z"/>
			<path class="st2" d="M84.2,102.5c-0.5,0-0.9-0.4-0.9-0.9s0.4-0.9,0.9-0.9s0.9,0.4,0.9,0.9S84.7,102.5,84.2,102.5z M84.2,101.3
				c-0.2,0-0.3,0.2-0.3,0.3s0.2,0.3,0.3,0.3s0.3-0.2,0.3-0.3S84.4,101.3,84.2,101.3z"/>
			<path class="st2" d="M88.7,94.3c-0.5,0-0.9-0.4-0.9-0.9s0.4-0.9,0.9-0.9s0.9,0.4,0.9,0.9S89.2,94.3,88.7,94.3z M88.7,93
				c-0.2,0-0.3,0.2-0.3,0.3c0,0.2,0.2,0.3,0.3,0.3c0.2,0,0.3-0.2,0.3-0.3S88.9,93,88.7,93z"/>
			<path class="st2" d="M81,80.9c-0.5,0-0.9-0.4-0.9-0.9s0.4-0.9,0.9-0.9s0.9,0.4,0.9,0.9C81.9,80.4,81.5,80.9,81,80.9z M81,79.6
				c-0.2,0-0.3,0.2-0.3,0.3c0,0.2,0.2,0.3,0.3,0.3s0.3-0.2,0.3-0.3C81.3,79.7,81.1,79.6,81,79.6z"/>
			<path class="st2" d="M93.5,108.1c-0.5,0-0.9-0.4-0.9-0.9s0.4-0.9,0.9-0.9s0.9,0.4,0.9,0.9S94,108.1,93.5,108.1z M93.5,106.8
				c-0.2,0-0.3,0.2-0.3,0.3s0.2,0.3,0.3,0.3c0.2,0,0.3-0.2,0.3-0.3S93.7,106.8,93.5,106.8z"/>
			<path class="st2" d="M97.8,108.1c-0.5,0-0.9-0.4-0.9-0.9s0.4-0.9,0.9-0.9s0.9,0.4,0.9,0.9S98.3,108.1,97.8,108.1z M97.8,106.8
				c-0.2,0-0.3,0.2-0.3,0.3s0.2,0.3,0.3,0.3s0.3-0.2,0.3-0.3S98,106.8,97.8,106.8z"/>
			<path class="st2" d="M102.7,108.1c-0.5,0-0.9-0.4-0.9-0.9s0.4-0.9,0.9-0.9s0.9,0.4,0.9,0.9S103.2,108.1,102.7,108.1z
				 M102.7,106.8c-0.2,0-0.3,0.2-0.3,0.3s0.2,0.3,0.3,0.3c0.2,0,0.3-0.2,0.3-0.3S102.9,106.8,102.7,106.8z"/>
			<path class="st2" d="M105.7,108.1c-0.5,0-0.9-0.4-0.9-0.9s0.4-0.9,0.9-0.9s0.9,0.4,0.9,0.9S106.2,108.1,105.7,108.1z
				 M105.7,106.8c-0.2,0-0.3,0.2-0.3,0.3s0.2,0.3,0.3,0.3s0.3-0.2,0.3-0.3S105.9,106.8,105.7,106.8z"/>
			<path class="st2" d="M105.9,94.3c-0.5,0-0.9-0.4-0.9-0.9s0.4-0.9,0.9-0.9s0.9,0.4,0.9,0.9S106.4,94.3,105.9,94.3z M105.9,93
				c-0.2,0-0.3,0.2-0.3,0.3c0,0.2,0.2,0.3,0.3,0.3c0.2,0,0.3-0.2,0.3-0.3C106.3,93.2,106.1,93,105.9,93z"/>
			<path class="st2" d="M105.9,88.1c-0.5,0-0.9-0.4-0.9-0.9s0.4-0.9,0.9-0.9s0.9,0.4,0.9,0.9C106.8,87.6,106.4,88.1,105.9,88.1z
				 M105.9,86.8c-0.2,0-0.3,0.2-0.3,0.3s0.2,0.3,0.3,0.3c0.2,0,0.3-0.2,0.3-0.3S106.1,86.8,105.9,86.8z"/>
			<path class="st2" d="M102.7,96.2c-0.5,0-0.9-0.4-0.9-0.9s0.4-0.9,0.9-0.9s0.9,0.4,0.9,0.9S103.2,96.2,102.7,96.2z M102.7,94.9
				c-0.2,0-0.3,0.2-0.3,0.3s0.2,0.3,0.3,0.3c0.2,0,0.3-0.2,0.3-0.3S102.9,94.9,102.7,94.9z"/>
			<path class="st2" d="M102.7,81.7c-0.5,0-0.9-0.4-0.9-0.9s0.4-0.9,0.9-0.9s0.9,0.4,0.9,0.9C103.6,81.3,103.2,81.7,102.7,81.7z
				 M102.7,80.4c-0.2,0-0.3,0.2-0.3,0.3c0,0.2,0.2,0.3,0.3,0.3c0.2,0,0.3-0.2,0.3-0.3S102.9,80.4,102.7,80.4z"/>
			
				<rect x="90.9" y="93.6" transform="matrix(0.9404 -0.3401 0.3401 0.9404 -28.6642 36.9581)" class="st2" width="0.4" height="13.3"/>
			
				<rect x="86.1" y="94.9" transform="matrix(0.9544 -0.2986 0.2986 0.9544 -25.3199 30.2708)" class="st2" width="0.6" height="6.2"/>
			<rect x="88" y="102.1" transform="matrix(0.954 -0.2998 0.2998 0.954 -27.2221 31.2726)" class="st2" width="0.6" height="4.5"/>
			
				<rect x="82.9" y="84.3" transform="matrix(0.9535 -0.3013 0.3013 0.9535 -22.6314 29.1548)" class="st2" width="0.6" height="7.3"/>
			
				<rect x="87.9" y="76" transform="matrix(0.9404 -0.3401 0.3401 0.9404 -22.1368 34.7976)" class="st2" width="0.6" height="9.1"/>
			<polygon class="st2" points="97.3,106.6 91.5,90.4 87.5,88.6 82.8,75.7 81,75.7 81,75.2 83.2,75.2 88,88.2 91.9,90 97.9,106.5 
							"/>
			<polygon class="st2" points="103,106.5 102.4,106.5 102.4,99 99.8,97.8 99.8,75.2 102.9,75.2 102.9,80.1 102.4,80.1 102.4,75.7 
				100.4,75.7 100.4,97.5 103,98.7 			"/>
			<polygon class="st2" points="102,107.4 99.8,107.4 99.8,102.1 100.4,102.1 100.4,106.9 102,106.9 			"/>
			<polygon class="st2" points="102.9,94.6 102.4,94.6 102.4,84.8 104.8,83.9 104.8,76.1 105.4,76.1 105.4,84.3 102.9,85.2 			"/>
			<polygon class="st2" points="106,106.5 105.4,106.5 105.4,97 107.9,96.1 107.9,76.1 108.5,76.1 108.5,96.5 106,97.4 			"/>
			<rect x="105.6" y="87.8" class="st2" width="0.6" height="5"/>
		</g>
		
			<radialGradient id="SVGID_1_" cx="2440.8091" cy="2309.7854" r="26.1288" gradientTransform="matrix(0.4268 -1.900000e-03 1.900000e-03 0.4268 -940.9532 -905.729)" gradientUnits="userSpaceOnUse">
			<stop  offset="7.581380e-02" style="stop-color:#FFFFFF"/>
			<stop  offset="8.527429e-02" style="stop-color:#A700FF"/>
			<stop  offset="9.329196e-02" style="stop-color:#A300F9"/>
			<stop  offset="0.1648" style="stop-color:#8100C5"/>
			<stop  offset="0.2412" style="stop-color:#620096"/>
			<stop  offset="0.3207" style="stop-color:#48006E"/>
			<stop  offset="0.4041" style="stop-color:#32004C"/>
			<stop  offset="0.4925" style="stop-color:#200030"/>
			<stop  offset="0.5876" style="stop-color:#12001B"/>
			<stop  offset="0.6928" style="stop-color:#08000C"/>
			<stop  offset="0.8158" style="stop-color:#020003"/>
			<stop  offset="1" style="stop-color:#000000"/>
		</radialGradient>
		<path class="st4" d="M116.3,75.4c0,6.2-4.9,11.2-11.1,11.2S94,81.7,94,75.5s4.9-11.2,11.1-11.2S116.3,69.2,116.3,75.4z"/>
		
			<radialGradient id="SVGID_00000167388784236752220720000017985566776740680343_" cx="2392.082" cy="2348.6392" r="26.1539" gradientTransform="matrix(0.4268 -1.900000e-03 1.900000e-03 0.4268 -940.9532 -905.729)" gradientUnits="userSpaceOnUse">
			<stop  offset="7.581380e-02" style="stop-color:#FFFFFF"/>
			<stop  offset="8.527429e-02" style="stop-color:#A700FF"/>
			<stop  offset="9.329196e-02" style="stop-color:#A300F9"/>
			<stop  offset="0.1648" style="stop-color:#8100C5"/>
			<stop  offset="0.2412" style="stop-color:#620096"/>
			<stop  offset="0.3207" style="stop-color:#48006E"/>
			<stop  offset="0.4041" style="stop-color:#32004C"/>
			<stop  offset="0.4925" style="stop-color:#200030"/>
			<stop  offset="0.5876" style="stop-color:#12001B"/>
			<stop  offset="0.6928" style="stop-color:#08000C"/>
			<stop  offset="0.8158" style="stop-color:#020003"/>
			<stop  offset="1" style="stop-color:#000000"/>
		</radialGradient>
		<path style="display:none;fill:url(#SVGID_00000167388784236752220720000017985566776740680343_);" d="M95.6,92.1
			c0,6.2-4.9,11.2-11.1,11.2s-11.2-4.9-11.2-11.1S78.3,81,84.4,81C90.6,80.9,95.6,85.9,95.6,92.1z"/>
		
			<radialGradient id="SVGID_00000134211561453427997090000013272916058348882575_" cx="2441.8308" cy="2384.064" r="26.1249" gradientTransform="matrix(0.4268 -1.900000e-03 1.900000e-03 0.4268 -940.9532 -905.729)" gradientUnits="userSpaceOnUse">
			<stop  offset="7.581380e-02" style="stop-color:#FFFFFF"/>
			<stop  offset="8.527429e-02" style="stop-color:#A700FF"/>
			<stop  offset="9.329196e-02" style="stop-color:#A300F9"/>
			<stop  offset="0.1648" style="stop-color:#8100C5"/>
			<stop  offset="0.2412" style="stop-color:#620096"/>
			<stop  offset="0.3207" style="stop-color:#48006E"/>
			<stop  offset="0.4041" style="stop-color:#32004C"/>
			<stop  offset="0.4925" style="stop-color:#200030"/>
			<stop  offset="0.5876" style="stop-color:#12001B"/>
			<stop  offset="0.6928" style="stop-color:#08000C"/>
			<stop  offset="0.8158" style="stop-color:#020003"/>
			<stop  offset="1" style="stop-color:#000000"/>
		</radialGradient>
		<path style="display:none;fill:url(#SVGID_00000134211561453427997090000013272916058348882575_);" d="M116.9,107.1
			c0,6.2-4.9,11.2-11.1,11.2s-11.2-4.9-11.2-11.1S99.5,96,105.7,96C111.8,96,116.9,100.9,116.9,107.1z"/>
		
			<radialGradient id="SVGID_00000030444986046845100200000013195201718295283122_" cx="2413.0796" cy="2383.9355" r="26.149" gradientTransform="matrix(0.4268 -1.900000e-03 1.900000e-03 0.4268 -940.9532 -905.729)" gradientUnits="userSpaceOnUse">
			<stop  offset="7.581380e-02" style="stop-color:#FFFFFF"/>
			<stop  offset="8.527429e-02" style="stop-color:#A700FF"/>
			<stop  offset="9.329196e-02" style="stop-color:#A300F9"/>
			<stop  offset="0.1648" style="stop-color:#8100C5"/>
			<stop  offset="0.2412" style="stop-color:#620096"/>
			<stop  offset="0.3207" style="stop-color:#48006E"/>
			<stop  offset="0.4041" style="stop-color:#32004C"/>
			<stop  offset="0.4925" style="stop-color:#200030"/>
			<stop  offset="0.5876" style="stop-color:#12001B"/>
			<stop  offset="0.6928" style="stop-color:#08000C"/>
			<stop  offset="0.8158" style="stop-color:#020003"/>
			<stop  offset="1" style="stop-color:#000000"/>
		</radialGradient>
		<path style="display:none;fill:url(#SVGID_00000030444986046845100200000013195201718295283122_);" d="M104.6,107.1
			c0,6.2-4.9,11.2-11.1,11.2s-11.2-4.9-11.2-11.1S87.3,96,93.4,96C99.6,96,104.6,100.9,104.6,107.1z"/>
		
			<radialGradient id="SVGID_00000019667886318580430950000002353644089387903382_" cx="2353.501" cy="2383.6707" r="26.1657" gradientTransform="matrix(0.4268 -1.900000e-03 1.900000e-03 0.4268 -940.9532 -905.729)" gradientUnits="userSpaceOnUse">
			<stop  offset="7.581380e-02" style="stop-color:#FFFFFF"/>
			<stop  offset="8.527429e-02" style="stop-color:#A700FF"/>
			<stop  offset="9.329196e-02" style="stop-color:#A300F9"/>
			<stop  offset="0.1648" style="stop-color:#8100C5"/>
			<stop  offset="0.2412" style="stop-color:#620096"/>
			<stop  offset="0.3207" style="stop-color:#48006E"/>
			<stop  offset="0.4041" style="stop-color:#32004C"/>
			<stop  offset="0.4925" style="stop-color:#200030"/>
			<stop  offset="0.5876" style="stop-color:#12001B"/>
			<stop  offset="0.6928" style="stop-color:#08000C"/>
			<stop  offset="0.8158" style="stop-color:#020003"/>
			<stop  offset="1" style="stop-color:#000000"/>
		</radialGradient>
		<path style="display:none;fill:url(#SVGID_00000019667886318580430950000002353644089387903382_);" d="M79.2,107.1
			c0,6.2-4.9,11.2-11.1,11.2s-11.2-4.9-11.2-11.1S61.9,96,68,96C74.2,96,79.2,100.9,79.2,107.1z"/>
		
			<radialGradient id="SVGID_00000019658196479351482410000001231213810296173450_" cx="2375.6191" cy="2309.9641" r="26.1249" gradientTransform="matrix(0.4268 -1.900000e-03 1.900000e-03 0.4268 -940.9532 -905.729)" gradientUnits="userSpaceOnUse">
			<stop  offset="7.581380e-02" style="stop-color:#FFFFFF"/>
			<stop  offset="8.527429e-02" style="stop-color:#A700FF"/>
			<stop  offset="9.329196e-02" style="stop-color:#A300F9"/>
			<stop  offset="0.1648" style="stop-color:#8100C5"/>
			<stop  offset="0.2412" style="stop-color:#620096"/>
			<stop  offset="0.3207" style="stop-color:#48006E"/>
			<stop  offset="0.4041" style="stop-color:#32004C"/>
			<stop  offset="0.4925" style="stop-color:#200030"/>
			<stop  offset="0.5876" style="stop-color:#12001B"/>
			<stop  offset="0.6928" style="stop-color:#08000C"/>
			<stop  offset="0.8158" style="stop-color:#020003"/>
			<stop  offset="1" style="stop-color:#000000"/>
		</radialGradient>
		<path style="display:none;fill:url(#SVGID_00000019658196479351482410000001231213810296173450_);" d="M88.5,75.6
			c0,6.2-4.9,11.2-11.1,11.2s-11.2-4.9-11.2-11.1s4.9-11.2,11.1-11.2C83.4,64.5,88.5,69.5,88.5,75.6z"/>
	</g>
</g>
</svg>
