<svg width="258" height="64" viewBox="0 0 258 64" fill="none" xmlns="http://www.w3.org/2000/svg">
<path opacity="0.5" d="M1.3714 59V46.04H6.2584C6.3844 46.04 6.5194 46.046 6.6634 46.058C6.8134 46.064 6.9694 46.082 7.1314 46.112C7.7794 46.214 8.3344 46.448 8.7964 46.814C9.26441 47.174 9.62141 47.63 9.86741 48.182C10.1134 48.728 10.2364 49.331 10.2364 49.991C10.2364 50.657 10.1134 51.266 9.86741 51.818C9.62141 52.364 9.26441 52.82 8.7964 53.186C8.3344 53.546 7.7794 53.777 7.1314 53.879C6.9694 53.903 6.8134 53.921 6.6634 53.933C6.5194 53.945 6.3844 53.951 6.2584 53.951H2.4064V59H1.3714ZM2.4064 52.934H6.2404C6.3484 52.934 6.4714 52.928 6.6094 52.916C6.7534 52.904 6.8974 52.886 7.0414 52.862C7.5094 52.766 7.8994 52.577 8.2114 52.295C8.5234 52.007 8.7574 51.662 8.9134 51.26C9.0694 50.858 9.14741 50.435 9.14741 49.991C9.14741 49.547 9.0694 49.127 8.9134 48.731C8.7574 48.329 8.5234 47.987 8.2114 47.705C7.8994 47.417 7.5094 47.225 7.0414 47.129C6.8974 47.099 6.7534 47.078 6.6094 47.066C6.4714 47.054 6.3484 47.048 6.2404 47.048H2.4064V52.934ZM17.6132 59.27C16.6472 59.27 15.8282 59.051 15.1562 58.613C14.4842 58.175 13.9712 57.569 13.6172 56.795C13.2632 56.021 13.0862 55.13 13.0862 54.122C13.0862 53.108 13.2662 52.217 13.6262 51.449C13.9862 50.675 14.5022 50.075 15.1742 49.649C15.8522 49.223 16.6652 49.01 17.6132 49.01C18.5792 49.01 19.3982 49.229 20.0702 49.667C20.7482 50.099 21.2612 50.699 21.6092 51.467C21.9632 52.235 22.1402 53.12 22.1402 54.122C22.1402 55.148 21.9632 56.048 21.6092 56.822C21.2552 57.59 20.7392 58.19 20.0612 58.622C19.3832 59.054 18.5672 59.27 17.6132 59.27ZM17.6132 58.262C18.7592 58.262 19.6142 57.878 20.1782 57.11C20.7482 56.342 21.0332 55.346 21.0332 54.122C21.0332 52.874 20.7482 51.878 20.1782 51.134C19.6082 50.39 18.7532 50.018 17.6132 50.018C16.8392 50.018 16.2002 50.195 15.6962 50.549C15.1922 50.897 14.8142 51.38 14.5622 51.998C14.3162 52.61 14.1932 53.318 14.1932 54.122C14.1932 55.37 14.4812 56.372 15.0572 57.128C15.6392 57.884 16.4912 58.262 17.6132 58.262ZM27.4587 59L24.4887 49.28H25.5507L27.9897 57.263L30.4287 49.28H31.4277L33.8757 57.263L36.3237 49.28H37.3677L34.3977 59H33.4257L30.9327 50.909L28.4307 59H27.4587ZM44.2677 59.27C43.3377 59.27 42.5337 59.063 41.8557 58.649C41.1777 58.229 40.6527 57.638 40.2807 56.876C39.9087 56.108 39.7227 55.202 39.7227 54.158C39.7227 53.096 39.9057 52.181 40.2717 51.413C40.6437 50.639 41.1657 50.045 41.8377 49.631C42.5157 49.217 43.3197 49.01 44.2497 49.01C45.1917 49.01 45.9957 49.226 46.6617 49.658C47.3337 50.084 47.8437 50.702 48.1917 51.512C48.5457 52.322 48.7137 53.297 48.6957 54.437H47.6157V54.077C47.5857 52.745 47.2857 51.731 46.7157 51.035C46.1457 50.339 45.3297 49.991 44.2677 49.991C43.1697 49.991 42.3207 50.354 41.7207 51.08C41.1267 51.8 40.8297 52.82 40.8297 54.14C40.8297 55.448 41.1267 56.462 41.7207 57.182C42.3207 57.902 43.1637 58.262 44.2497 58.262C44.9997 58.262 45.6537 58.088 46.2117 57.74C46.7757 57.386 47.2227 56.882 47.5527 56.228L48.4887 56.642C48.0987 57.482 47.5347 58.13 46.7967 58.586C46.0587 59.042 45.2157 59.27 44.2677 59.27ZM40.4337 54.437V53.501H48.1107V54.437H40.4337ZM52.3065 59V49.28H53.2515V51.611L53.0175 51.305C53.1255 51.029 53.2605 50.774 53.4225 50.54C53.5905 50.3 53.7615 50.105 53.9355 49.955C54.1935 49.715 54.4965 49.535 54.8445 49.415C55.1925 49.289 55.5435 49.217 55.8975 49.199C56.2515 49.175 56.5725 49.202 56.8605 49.28V50.261C56.4765 50.171 56.0685 50.153 55.6365 50.207C55.2045 50.261 54.7995 50.447 54.4215 50.765C54.0915 51.053 53.8515 51.389 53.7015 51.773C53.5515 52.151 53.4555 52.55 53.4135 52.97C53.3715 53.384 53.3505 53.789 53.3505 54.185V59H52.3065ZM64.0135 59.27C63.0835 59.27 62.2795 59.063 61.6015 58.649C60.9235 58.229 60.3985 57.638 60.0265 56.876C59.6545 56.108 59.4685 55.202 59.4685 54.158C59.4685 53.096 59.6515 52.181 60.0175 51.413C60.3895 50.639 60.9115 50.045 61.5835 49.631C62.2615 49.217 63.0655 49.01 63.9955 49.01C64.9375 49.01 65.7415 49.226 66.4075 49.658C67.0795 50.084 67.5895 50.702 67.9375 51.512C68.2915 52.322 68.4595 53.297 68.4415 54.437H67.3615V54.077C67.3315 52.745 67.0315 51.731 66.4615 51.035C65.8915 50.339 65.0755 49.991 64.0135 49.991C62.9155 49.991 62.0665 50.354 61.4665 51.08C60.8725 51.8 60.5755 52.82 60.5755 54.14C60.5755 55.448 60.8725 56.462 61.4665 57.182C62.0665 57.902 62.9095 58.262 63.9955 58.262C64.7455 58.262 65.3995 58.088 65.9575 57.74C66.5215 57.386 66.9685 56.882 67.2985 56.228L68.2345 56.642C67.8445 57.482 67.2805 58.13 66.5425 58.586C65.8045 59.042 64.9615 59.27 64.0135 59.27ZM60.1795 54.437V53.501H67.8565V54.437H60.1795ZM75.7873 59.27C74.8693 59.27 74.0923 59.045 73.4563 58.595C72.8263 58.139 72.3433 57.524 72.0073 56.75C71.6773 55.97 71.5123 55.094 71.5123 54.122C71.5123 53.162 71.6773 52.295 72.0073 51.521C72.3373 50.747 72.8113 50.135 73.4293 49.685C74.0533 49.235 74.8063 49.01 75.6883 49.01C76.5943 49.01 77.3593 49.232 77.9833 49.676C78.6073 50.12 79.0783 50.729 79.3963 51.503C79.7143 52.271 79.8733 53.144 79.8733 54.122C79.8733 55.094 79.7143 55.967 79.3963 56.741C79.0783 57.515 78.6163 58.13 78.0103 58.586C77.4043 59.042 76.6633 59.27 75.7873 59.27ZM75.8503 58.28C76.5763 58.28 77.1793 58.1 77.6593 57.74C78.1453 57.374 78.5053 56.879 78.7393 56.255C78.9793 55.625 79.0993 54.914 79.0993 54.122C79.0993 53.324 78.9793 52.613 78.7393 51.989C78.4993 51.365 78.1393 50.879 77.6593 50.531C77.1793 50.177 76.5823 50 75.8683 50C75.1303 50 74.5213 50.183 74.0413 50.549C73.5613 50.909 73.2043 51.401 72.9703 52.025C72.7363 52.643 72.6193 53.342 72.6193 54.122C72.6193 54.908 72.7393 55.616 72.9793 56.246C73.2253 56.87 73.5853 57.365 74.0593 57.731C74.5393 58.097 75.1363 58.28 75.8503 58.28ZM79.0993 59V51.512H79.0093V46.04H80.0443V59H79.0993ZM89.4076 59V46.04H94.3666C95.0386 46.04 95.6416 46.184 96.1756 46.472C96.7156 46.754 97.1386 47.141 97.4446 47.633C97.7566 48.125 97.9126 48.68 97.9126 49.298C97.9126 49.994 97.7206 50.621 97.3366 51.179C96.9526 51.731 96.4426 52.118 95.8066 52.34L95.7706 51.908C96.6226 52.166 97.2976 52.598 97.7956 53.204C98.2996 53.804 98.5516 54.548 98.5516 55.436C98.5516 56.18 98.3866 56.819 98.0566 57.353C97.7326 57.881 97.2826 58.289 96.7066 58.577C96.1306 58.859 95.4766 59 94.7446 59H89.4076ZM90.4516 57.983H94.4026C94.9786 57.983 95.4946 57.884 95.9506 57.686C96.4126 57.488 96.7756 57.203 97.0396 56.831C97.3096 56.459 97.4446 56.009 97.4446 55.481C97.4446 54.959 97.3216 54.488 97.0756 54.068C96.8356 53.642 96.5086 53.306 96.0946 53.06C95.6806 52.808 95.2156 52.682 94.6996 52.682H90.4516V57.983ZM90.4516 51.683H94.3576C94.8076 51.683 95.2186 51.578 95.5906 51.368C95.9686 51.158 96.2686 50.873 96.4906 50.513C96.7126 50.147 96.8236 49.73 96.8236 49.262C96.8236 48.596 96.5866 48.059 96.1126 47.651C95.6446 47.243 95.0596 47.039 94.3576 47.039H90.4516V51.683ZM103.383 63.32L105.273 58.235L105.291 59.747L101.034 49.28H102.141L105.795 58.37H105.219L108.54 49.28H109.629L104.463 63.32H103.383Z" fill="white"/>
<g opacity="0.5">
<path d="M194.712 43.6092V47.3754C194.712 47.4308 194.767 47.5415 194.822 47.5415L208.711 60.8892C208.875 61.0554 209.15 60.8892 209.15 60.7231V43.2769C209.15 43.1108 209.04 43 208.875 43H206.35C206.186 43 206.076 43.1108 206.076 43.2769V53.8C206.076 54.0215 205.801 54.1323 205.637 53.9662L195.097 43.3877C194.932 43.2769 194.712 43.3877 194.712 43.6092Z" stroke="#E7E7E7" stroke-miterlimit="10"/>
<path d="M120 43.6092V47.3754C120 47.4308 120.055 47.5415 120.11 47.5415L133.998 60.8892C134.163 61.0554 134.437 60.8892 134.437 60.7231V43.2769C134.437 43.1108 134.328 43 134.163 43H131.638C131.473 43 131.363 43.1108 131.363 43.2769V53.8C131.363 54.0215 131.089 54.1323 130.924 53.9662L120.384 43.3877C120.22 43.2769 120 43.3877 120 43.6092Z" stroke="#E7E7E7" stroke-miterlimit="10"/>
<path d="M139.872 43.3323C139.707 43.3323 139.598 43.443 139.598 43.6092V55.2954C139.598 55.2954 139.653 60.9446 146.844 60.9446C154.035 60.9446 153.925 55.24 153.925 55.24L153.87 53.6338C153.87 53.523 153.761 53.4123 153.596 53.4123H150.192C150.028 53.4123 149.918 53.523 149.918 53.6892C149.973 54.5753 149.918 57.1784 146.789 57.1784C143.056 57.1784 143.221 53.4123 143.221 53.4123V43.6092C143.221 43.443 143.111 43.3323 142.946 43.3323H139.872Z" stroke="#E7E7E7" stroke-miterlimit="10"/>
<path d="M155.078 43.6092L156.176 46.9323C156.231 47.043 156.285 47.0984 156.395 47.0984H161.006C162.269 47.0984 163.367 47.9292 163.641 49.203C163.751 49.8123 163.696 50.4769 163.147 51.0307C162.818 51.363 162.379 51.5292 161.885 51.5292H158.975C158.811 51.5292 158.701 51.64 158.701 51.8061V52.7476C158.701 52.803 158.701 52.8584 158.756 52.8584L163.641 60.8892C163.696 60.9446 163.751 61 163.861 61H167.649C167.868 61 167.978 60.7784 167.868 60.6123L164.465 54.9076C164.41 54.7969 164.41 54.6307 164.52 54.5753C165.343 54.0215 167.978 51.6953 166.825 47.1538C165.618 42.28 160.293 43.2769 155.297 43.3323C155.133 43.2769 155.023 43.4984 155.078 43.6092Z" stroke="#E7E7E7" stroke-miterlimit="10"/>
<path d="M181.263 57.9538C184.568 57.9538 187.247 55.251 187.247 51.9169C187.247 48.5828 184.568 45.88 181.263 45.88C177.959 45.88 175.28 48.5828 175.28 51.9169C175.28 55.251 177.959 57.9538 181.263 57.9538Z" stroke="#E7E7E7" stroke-miterlimit="10"/>
<path d="M181.263 60.7784C186.114 60.7784 190.046 56.811 190.046 51.9169C190.046 47.0228 186.114 43.0554 181.263 43.0554C176.412 43.0554 172.48 47.0228 172.48 51.9169C172.48 56.811 176.412 60.7784 181.263 60.7784Z" stroke="#E7E7E7" stroke-miterlimit="10"/>
<path d="M216.671 61H215.244C215.134 61 215.024 60.8892 215.024 60.7785V58.6738C215.024 58.5631 215.134 58.4523 215.244 58.4523H216.671C216.781 58.4523 216.89 58.5631 216.89 58.6738V60.7785C216.89 60.8892 216.781 61 216.671 61Z" stroke="#E7E7E7" stroke-miterlimit="10"/>
<path d="M233.853 55.1845H235.939C236.104 55.1845 236.268 54.963 236.159 54.7969L230.669 43.1661C230.559 42.9999 230.34 42.9999 230.23 43.1661L222.654 60.5569C222.6 60.723 222.709 60.9445 222.874 60.9445H225.454C225.564 60.9445 225.619 60.8892 225.674 60.7784L230.395 48.8707C230.504 48.6492 230.779 48.6492 230.834 48.8707L233.524 55.1845C233.633 55.1845 233.743 55.1845 233.853 55.1845Z" stroke="#E7E7E7" stroke-miterlimit="10"/>
<path d="M235.171 58.7292L236.159 60.8338C236.214 60.9446 236.268 61 236.378 61H238.903C239.068 61 239.233 60.7784 239.123 60.6123L238.025 58.5077C237.97 58.4523 237.915 58.3969 237.806 58.3969H235.39C235.225 58.3415 235.116 58.563 235.171 58.7292Z" stroke="#E7E7E7" stroke-miterlimit="10"/>
<path d="M247.083 58.12L245.106 60.9446C244.942 61.0554 244.722 60.8892 244.722 60.7231V43.3877C244.722 43.2216 244.942 43.0554 245.106 43.1662L247.083 45.9908C247.192 46.0462 247.247 46.1016 247.247 46.2123V57.9539C247.192 58.0092 247.138 58.12 247.083 58.12Z" stroke="#E7E7E7" stroke-miterlimit="10"/>
</g>
<g clip-path="url(#clip0_52_2)">
<path d="M0.852 0C0.738 0 0.624 0.03 0.516 0.072C0.408 0.12 0.318 0.186 0.234 0.27C0.156 0.354 0.09 0.45 0.048 0.558C0.018 0.672 0 0.786 0 0.9V29.1C0 29.334 0.084 29.556 0.24 29.724C0.402 29.892 0.618 29.988 0.852 29.994C1.086 29.994 1.302 29.892 1.464 29.724C1.626 29.556 1.71 29.334 1.704 29.1V0.9C1.704 0.666 1.62 0.444 1.464 0.276C1.308 0.108 1.086 0.012 0.852 0ZM30.24 0C30.126 0 30.012 0.03 29.904 0.072C29.796 0.12 29.706 0.186 29.622 0.27C29.544 0.354 29.478 0.45 29.436 0.558C29.394 0.666 29.376 0.78 29.376 0.894V26.67L7.92 0.318C7.848 0.228 7.764 0.156 7.662 0.102C7.56 0.048 7.452 0.018 7.338 0.006C7.224 -0.006 7.11 0.006 7.002 0.048C6.894 0.084 6.798 0.144 6.714 0.216C6.54 0.372 6.432 0.594 6.414 0.828C6.396 1.062 6.468 1.296 6.618 1.476L29.598 29.676C29.676 29.772 29.778 29.85 29.886 29.904C30 29.958 30.12 29.988 30.246 29.988C30.348 29.988 30.45 29.97 30.54 29.934C30.708 29.868 30.852 29.748 30.948 29.598C31.05 29.448 31.098 29.274 31.098 29.094V0.9C31.098 0.786 31.08 0.672 31.038 0.564C30.996 0.456 30.936 0.36 30.852 0.276C30.774 0.192 30.678 0.126 30.57 0.078C30.462 0.03 30.354 0.006 30.234 0.006L30.24 0ZM7.92 8.178C7.812 8.04 7.662 7.938 7.488 7.896C7.32 7.848 7.14 7.86 6.972 7.92C6.804 7.986 6.66 8.106 6.564 8.256C6.462 8.406 6.414 8.58 6.414 8.76V29.106C6.414 29.22 6.426 29.34 6.468 29.448C6.51 29.556 6.57 29.658 6.648 29.742C6.726 29.826 6.822 29.892 6.93 29.94C7.038 29.988 7.152 30.012 7.266 30.012C7.38 30.012 7.494 29.988 7.602 29.94C7.71 29.892 7.806 29.826 7.884 29.742C7.962 29.658 8.028 29.556 8.064 29.448C8.106 29.34 8.124 29.226 8.118 29.106V11.19L23.19 29.688C23.268 29.784 23.364 29.862 23.478 29.916C23.592 29.97 23.712 30 23.838 30C24.042 30 24.24 29.922 24.39 29.784C24.564 29.628 24.672 29.406 24.69 29.172C24.708 28.938 24.636 28.704 24.492 28.524L7.92 8.178ZM59.622 0H36.642C36.528 0 36.414 0.03 36.306 0.072C36.198 0.12 36.108 0.186 36.024 0.27C35.946 0.354 35.88 0.45 35.838 0.558C35.796 0.666 35.778 0.78 35.778 0.894C35.778 1.008 35.796 1.122 35.838 1.23C35.88 1.338 35.94 1.434 36.024 1.518C36.102 1.602 36.198 1.668 36.306 1.716C36.414 1.764 36.528 1.788 36.642 1.788H47.274V29.094C47.274 29.208 47.286 29.328 47.328 29.436C47.37 29.544 47.43 29.646 47.508 29.73C47.586 29.814 47.682 29.88 47.79 29.928C47.898 29.976 48.012 30 48.126 30C48.24 30 48.354 29.976 48.462 29.928C48.57 29.88 48.666 29.814 48.744 29.73C48.822 29.646 48.888 29.544 48.924 29.436C48.966 29.328 48.984 29.214 48.978 29.094V1.794H59.61C59.844 1.794 60.06 1.692 60.222 1.524C60.384 1.356 60.468 1.134 60.462 0.9C60.462 0.666 60.378 0.444 60.222 0.276C60.06 0.108 59.844 0.012 59.61 0.006L59.622 0ZM89.004 28.2H66.882V18.444H81.924C82.038 18.444 82.152 18.414 82.26 18.372C82.368 18.324 82.458 18.258 82.542 18.174C82.62 18.09 82.686 17.994 82.728 17.886C82.77 17.778 82.788 17.664 82.788 17.55V12.444C82.788 12.21 82.704 11.988 82.548 11.82C82.386 11.652 82.17 11.556 81.936 11.55C81.702 11.55 81.486 11.652 81.324 11.82C81.162 11.988 81.078 12.21 81.084 12.444V16.65H66.042C65.808 16.65 65.592 16.752 65.43 16.92C65.268 17.088 65.184 17.31 65.19 17.544V29.094C65.19 29.328 65.274 29.55 65.43 29.718C65.592 29.886 65.808 29.982 66.042 29.988H89.022C89.256 29.988 89.472 29.886 89.634 29.718C89.796 29.55 89.88 29.328 89.874 29.094C89.874 28.98 89.856 28.866 89.814 28.758C89.772 28.65 89.712 28.554 89.628 28.47C89.544 28.386 89.454 28.32 89.346 28.272C89.238 28.224 89.124 28.2 89.01 28.2H89.004ZM66.024 13.338C66.138 13.338 66.252 13.308 66.36 13.266C66.468 13.218 66.558 13.152 66.642 13.068C66.72 12.984 66.786 12.888 66.822 12.78C66.864 12.672 66.882 12.558 66.882 12.444V1.794H89.004C89.118 1.794 89.232 1.764 89.34 1.722C89.442 1.674 89.538 1.608 89.622 1.524C89.7 1.44 89.766 1.344 89.808 1.236C89.85 1.128 89.868 1.014 89.868 0.9C89.868 0.786 89.85 0.672 89.808 0.564C89.766 0.456 89.706 0.36 89.622 0.276C89.544 0.192 89.448 0.126 89.34 0.078C89.232 0.03 89.124 0.006 89.004 0.006H66.024C65.91 0.006 65.796 0.036 65.688 0.078C65.58 0.126 65.49 0.192 65.406 0.276C65.328 0.36 65.262 0.456 65.22 0.564C65.178 0.672 65.16 0.786 65.16 0.9V12.45C65.16 12.564 65.178 12.678 65.22 12.786C65.262 12.894 65.322 12.99 65.406 13.074C65.484 13.158 65.58 13.224 65.688 13.272C65.796 13.32 65.91 13.344 66.024 13.344V13.338ZM118.386 28.2H96.264V0.9C96.264 0.786 96.246 0.672 96.204 0.564C96.162 0.456 96.102 0.36 96.018 0.276C95.94 0.192 95.844 0.126 95.736 0.078C95.634 0.03 95.52 0.006 95.406 0.006C95.292 0.006 95.178 0.036 95.07 0.078C94.962 0.126 94.872 0.192 94.788 0.276C94.71 0.36 94.644 0.456 94.608 0.564C94.566 0.672 94.548 0.786 94.548 0.9V29.1C94.548 29.334 94.632 29.556 94.788 29.724C94.95 29.892 95.166 29.988 95.4 29.994H118.38C118.614 29.994 118.83 29.892 118.992 29.724C119.154 29.556 119.238 29.334 119.232 29.1C119.232 28.986 119.214 28.872 119.172 28.764C119.13 28.656 119.07 28.56 118.986 28.476C118.908 28.392 118.812 28.326 118.704 28.278C118.596 28.23 118.488 28.206 118.368 28.206L118.386 28.2ZM147.768 28.2H125.646V0.9C125.646 0.786 125.628 0.672 125.586 0.564C125.544 0.456 125.484 0.36 125.406 0.276C125.328 0.192 125.232 0.126 125.124 0.078C125.016 0.03 124.908 0.006 124.788 0.006C124.674 0.006 124.56 0.036 124.452 0.078C124.35 0.126 124.254 0.192 124.17 0.276C124.092 0.36 124.026 0.456 123.984 0.564C123.942 0.672 123.924 0.786 123.924 0.9V29.1C123.924 29.334 124.008 29.556 124.164 29.724C124.326 29.892 124.542 29.988 124.776 29.994H147.756C147.99 29.994 148.206 29.892 148.368 29.724C148.53 29.556 148.614 29.334 148.608 29.1C148.608 28.986 148.59 28.872 148.548 28.764C148.506 28.656 148.446 28.56 148.362 28.476C148.284 28.392 148.188 28.326 148.08 28.278C147.972 28.23 147.858 28.206 147.744 28.206L147.768 28.2ZM154.17 0C154.056 0 153.942 0.03 153.84 0.072C153.732 0.12 153.642 0.186 153.558 0.27C153.48 0.354 153.414 0.45 153.378 0.558C153.336 0.666 153.318 0.78 153.318 0.894V29.094C153.318 29.208 153.33 29.328 153.372 29.436C153.414 29.544 153.474 29.646 153.552 29.73C153.63 29.814 153.726 29.88 153.834 29.928C153.942 29.976 154.056 30 154.17 30C154.284 30 154.404 29.976 154.506 29.928C154.614 29.88 154.71 29.814 154.788 29.73C154.866 29.646 154.932 29.544 154.968 29.436C155.01 29.328 155.028 29.214 155.022 29.094V0.9C155.022 0.666 154.938 0.444 154.782 0.276C154.62 0.108 154.404 0.012 154.17 0.006V0ZM183.894 0.072C183.792 0.024 183.678 0 183.564 0C183.45 0 183.336 0.024 183.234 0.066C183.132 0.108 183.036 0.174 182.958 0.258C182.88 0.342 182.82 0.438 182.778 0.546L172.074 26.814L161.37 0.546C161.328 0.438 161.268 0.342 161.19 0.258C161.112 0.174 161.016 0.114 160.914 0.066C160.812 0.024 160.698 0 160.584 0C160.47 0 160.356 0.024 160.254 0.072C160.044 0.174 159.876 0.348 159.792 0.57C159.708 0.786 159.714 1.032 159.804 1.248L171.294 29.448C171.354 29.61 171.462 29.748 171.6 29.844C171.738 29.94 171.906 29.994 172.08 29.994C172.254 29.994 172.416 29.94 172.56 29.844C172.704 29.748 172.806 29.61 172.866 29.448L184.356 1.248C184.446 1.032 184.446 0.786 184.368 0.57C184.284 0.354 184.116 0.174 183.906 0.072H183.894ZM189.96 0C189.846 0 189.732 0.03 189.63 0.072C189.522 0.12 189.432 0.186 189.348 0.27C189.27 0.354 189.204 0.45 189.168 0.558C189.126 0.666 189.108 0.78 189.108 0.894V29.094C189.108 29.208 189.12 29.328 189.162 29.436C189.204 29.544 189.264 29.646 189.342 29.73C189.42 29.814 189.516 29.88 189.624 29.928C189.732 29.976 189.846 30 189.96 30C190.074 30 190.194 29.976 190.296 29.928C190.404 29.88 190.5 29.814 190.578 29.73C190.656 29.646 190.722 29.544 190.758 29.436C190.8 29.328 190.818 29.214 190.812 29.094V0.9C190.812 0.666 190.728 0.444 190.572 0.276C190.41 0.108 190.194 0.012 189.96 0.006V0ZM215.616 16.398L200.676 11.886C199.656 11.532 198.774 10.866 198.15 9.984C197.532 9.096 197.208 8.04 197.226 6.96C197.196 5.622 197.7 4.326 198.624 3.36C199.548 2.394 200.82 1.83 202.158 1.794H213.648C214.986 1.83 216.258 2.388 217.182 3.36C218.106 4.326 218.61 5.622 218.58 6.96C218.58 7.074 218.598 7.188 218.64 7.296C218.682 7.404 218.742 7.5 218.82 7.584C218.898 7.668 218.994 7.734 219.102 7.782C219.204 7.83 219.318 7.854 219.432 7.854C219.546 7.854 219.66 7.824 219.768 7.782C219.876 7.734 219.966 7.668 220.05 7.584C220.134 7.5 220.194 7.404 220.23 7.296C220.272 7.188 220.29 7.074 220.29 6.96C220.284 3.12 217.308 0 213.648 0H202.158C198.498 0 195.522 3.12 195.522 6.954C195.498 8.412 195.936 9.84 196.776 11.034C197.616 12.228 198.81 13.122 200.19 13.596L215.13 18.108C216.15 18.462 217.032 19.128 217.656 20.01C218.274 20.898 218.598 21.954 218.58 23.034C218.61 24.372 218.106 25.668 217.182 26.634C216.258 27.6 214.992 28.164 213.654 28.2H202.164C200.826 28.164 199.554 27.606 198.63 26.634C197.706 25.668 197.202 24.372 197.232 23.034C197.232 22.8 197.148 22.578 196.992 22.41C196.83 22.242 196.608 22.146 196.38 22.14C196.146 22.14 195.93 22.242 195.768 22.41C195.606 22.578 195.522 22.8 195.528 23.034C195.528 26.868 198.504 29.988 202.164 29.988H213.654C217.314 29.988 220.29 26.868 220.29 23.034C220.314 21.576 219.876 20.148 219.036 18.954C218.196 17.76 217.002 16.866 215.622 16.392L215.616 16.398ZM247.464 28.464C245.91 26.814 244.038 25.5 241.956 24.606C239.88 23.706 237.636 23.244 235.374 23.244C233.112 23.244 230.868 23.706 228.792 24.606C226.716 25.506 224.838 26.814 223.284 28.464C223.122 28.632 223.032 28.86 223.032 29.094C223.032 29.328 223.122 29.556 223.278 29.73C223.356 29.814 223.452 29.88 223.554 29.922C223.656 29.97 223.77 29.994 223.884 29.994C223.998 29.994 224.112 29.97 224.214 29.928C224.316 29.886 224.412 29.82 224.49 29.736C225.888 28.254 227.574 27.072 229.446 26.262C231.318 25.452 233.334 25.038 235.374 25.038C237.414 25.038 239.43 25.452 241.302 26.262C243.174 27.072 244.86 28.254 246.258 29.736C246.336 29.82 246.432 29.886 246.534 29.928C246.636 29.97 246.75 29.994 246.864 29.994C246.978 29.994 247.092 29.97 247.194 29.922C247.296 29.874 247.392 29.808 247.47 29.73C247.632 29.556 247.716 29.334 247.716 29.094C247.716 28.86 247.626 28.632 247.464 28.464Z" fill="white"/>
<path d="M243.99 20.544C243.99 20.544 243.99 20.526 243.99 20.514C243.978 20.454 243.96 20.4 243.936 20.346L235.482 0.546C235.416 0.384 235.296 0.246 235.152 0.15C235.008 0.054 234.834 0 234.66 0C234.486 0 234.312 0.054 234.168 0.15C234.024 0.246 233.91 0.384 233.838 0.546L225.384 20.352C225.336 20.466 225.312 20.58 225.312 20.7C225.312 20.718 225.312 20.736 225.312 20.754C225.312 20.808 225.324 20.856 225.336 20.91H225.342C225.354 20.958 225.366 21 225.384 21.042C225.384 21.042 225.402 21.084 225.414 21.102C225.426 21.132 225.444 21.168 225.462 21.198C225.48 21.222 225.498 21.24 225.516 21.264C225.534 21.288 225.558 21.312 225.576 21.336C225.594 21.354 225.618 21.372 225.642 21.39C225.666 21.408 225.684 21.432 225.714 21.444C225.744 21.462 225.774 21.48 225.804 21.492C225.822 21.504 225.84 21.516 225.864 21.522C225.918 21.546 225.972 21.558 226.026 21.57C226.038 21.57 226.05 21.57 226.068 21.57C226.116 21.576 226.164 21.582 226.212 21.582C226.224 21.582 226.236 21.582 226.254 21.582C226.314 21.582 226.38 21.57 226.44 21.552C226.476 21.54 226.518 21.534 226.554 21.516C231.75 19.386 237.576 19.386 242.772 21.516C242.79 21.522 242.808 21.528 242.826 21.534C242.844 21.534 242.862 21.546 242.88 21.552C242.952 21.57 243.03 21.582 243.108 21.582C243.186 21.582 243.264 21.57 243.336 21.546C243.354 21.546 243.378 21.534 243.396 21.528C243.414 21.522 243.438 21.516 243.462 21.51C243.504 21.492 243.54 21.468 243.576 21.444C243.588 21.438 243.594 21.432 243.606 21.426C243.672 21.384 243.726 21.33 243.78 21.27C243.792 21.258 243.804 21.24 243.81 21.228C243.858 21.168 243.9 21.102 243.93 21.03C243.93 21.03 243.93 21.03 243.93 21.024C243.954 20.97 243.972 20.91 243.984 20.856C243.984 20.826 243.984 20.802 243.99 20.778C243.99 20.754 243.996 20.718 243.996 20.682C243.996 20.634 243.99 20.586 243.978 20.538L243.99 20.544Z" fill="#F26622"/>
<path d="M247.8 0.636H249.702V5.07H250.338V0.636H252.24V0H247.806V0.636H247.8Z" fill="white"/>
<path d="M257.22 0L255.396 2.436L253.578 0H252.864V5.064H253.494V0.954L255.144 3.168H255.636L257.286 0.954V5.064H257.922V0H257.208H257.22Z" fill="white"/>
</g>
<defs>
<clipPath id="clip0_52_2">
<rect width="257.934" height="30" fill="white"/>
</clipPath>
</defs>
</svg>
